# xmcd CD database file
#
# Track frame offsets:
#	150
#	24975
#	42546
#	59671
#
# Disc length: 1019 seconds
#
# Revision: 0
# Processed by: cddbd v1.5.1PL0 Copyright (c) Steve Scherf et al.
# Submitted via: CDex 1.51
#
DISCID=3203f904
DTITLE=後藤沙緒里 - Lip-Trip
DYEAR=2005
DGENRE=Pop
TTITLE0=ちいさな旅
TTITLE1=サンデー・ホリデー
TTITLE2=Lip-Trip
TTITLE3=花いろ日記
EXTD=YEAR: 2005
EXTT0=
EXTT1=
EXTT2=
EXTT3=
PLAYORDER=
